<mxfile host="app.diagrams.net" modified="2020-12-28T17:28:26.161Z" agent="5.0 (X11)" etag="9gz_0ye8LMtf3_WJa8mu" version="14.1.3" type="github">
  <diagram name="Page-1" id="2a216829-ef6e-dabb-86c1-c78162f3ba2b">
    <mxGraphModel dx="982" dy="521" grid="1" gridSize="10" guides="1" tooltips="1" connect="1" arrows="1" fold="1" page="1" pageScale="1" pageWidth="827" pageHeight="1169" background="#ffffff" math="0" shadow="0">
      <root>
        <mxCell id="0" />
        <mxCell id="1" parent="0" />
        <mxCell id="dpyWeQ5jaBix69rQ5t7a-1" value="&lt;div&gt;Clustercode&lt;/div&gt;" style="swimlane;html=1;childLayout=stackLayout;resizeParent=1;resizeParentMax=0;horizontal=0;startSize=20;horizontalStack=0;" vertex="1" parent="1">
          <mxGeometry x="170" y="130" width="480" height="360" as="geometry">
            <mxRectangle x="170" y="130" width="30" height="90" as="alternateBounds" />
          </mxGeometry>
        </mxCell>
        <mxCell id="dpyWeQ5jaBix69rQ5t7a-2" value="Operator" style="swimlane;html=1;startSize=20;horizontal=0;" vertex="1" parent="dpyWeQ5jaBix69rQ5t7a-1">
          <mxGeometry x="20" width="460" height="120" as="geometry" />
        </mxCell>
        <mxCell id="dpyWeQ5jaBix69rQ5t7a-3" value="CronJob" style="swimlane;html=1;startSize=20;horizontal=0;" vertex="1" parent="dpyWeQ5jaBix69rQ5t7a-1">
          <mxGeometry x="20" y="120" width="460" height="120" as="geometry" />
        </mxCell>
        <mxCell id="dpyWeQ5jaBix69rQ5t7a-4" value="Ffmpeg" style="swimlane;html=1;startSize=20;horizontal=0;" vertex="1" parent="dpyWeQ5jaBix69rQ5t7a-1">
          <mxGeometry x="20" y="240" width="460" height="120" as="geometry" />
        </mxCell>
      </root>
    </mxGraphModel>
  </diagram>
</mxfile>
